<svg width="32" height="32" viewBox="0 0 32 32" fill="none" xmlns="http://www.w3.org/2000/svg">
<rect width="32" height="32" fill="#07254B"/>
<g clip-path="url(#clip0_1907_5255)">
<path d="M0.711182 22.7882C5.51924 20.861 18.4056 18.1628 31.1254 22.7882C26.2672 20.0379 13.3105 16.1874 0.711182 22.7882Z" fill="white"/>
<path d="M14.1113 10.2912V11.9173L17.2431 15.4105V18.4218L19.7726 18.6025L19.8328 8.39411L22.6032 10.4418V14.4468L21.3084 15.019V18.8434L24.1089 19.3854V14.8985L25.3736 15.7417V19.5962L25.9759 19.8672V15.3201L23.9583 13.965L23.3259 14.2361V10.0202L19.5317 7.00891L14.1113 10.2912Z" fill="white"/>
<path d="M14.3528 15.5012V18.3918C12.8672 18.4721 9.11865 18.8612 6.01099 19.7766V15.5012L10.137 11.1946L14.3528 15.5012ZM9.11255 16.3479V17.3508H10.0579V16.3479H9.11255ZM10.2356 16.3479V17.3508H11.1809V16.3479H10.2356ZM9.11255 15.095V16.0979H10.0579V15.095H9.11255ZM10.2356 15.095V16.0979H11.1809V15.095H10.2356Z" fill="white"/>
</g>
<defs>
<clipPath id="clip0_1907_5255">
<rect width="30.4" height="27.6626" fill="white" transform="translate(0.711182 2.1333)"/>
</clipPath>
</defs>
</svg>
