<svg width="211" height="192" viewBox="0 0 211 192" fill="none" xmlns="http://www.w3.org/2000/svg">
<path d="M121.207 147.585C113.894 147.585 109.605 142.663 109.605 134.999V95.3589C109.605 94.6905 110.147 94.1487 110.816 94.1487H118.239C118.907 94.1487 119.449 94.6905 119.449 95.3589V133.733C119.449 137.319 121.347 138.796 123.808 138.796L123.562 146.445C123.54 147.111 122.984 147.634 122.318 147.616L121.207 147.585Z" fill="white"/>
<path d="M47.0915 147.936C39.7968 147.936 34.2518 145.643 30.4565 142.958C29.9517 142.601 29.8309 141.913 30.1562 141.387L33.9966 135.179C34.3792 134.56 35.2158 134.419 35.809 134.84C39.1594 137.217 43.0399 138.585 47.0915 138.585C52.2945 138.585 54.8256 136.405 54.8256 133.241C54.8256 124.452 30.217 128.952 30.217 111.093C30.217 102.727 37.1777 96.6096 47.7243 96.6096C53.7017 96.6096 58.8986 98.2906 62.8157 100.821C63.3527 101.167 63.4897 101.883 63.1492 102.424L59.302 108.537C58.9326 109.124 58.1479 109.278 57.5604 108.909C54.3167 106.875 51.0271 105.961 47.7946 105.961C43.2947 105.961 40.6933 108.351 40.6933 111.164C40.6933 119.742 65.3019 115.382 65.3019 133.241C65.3019 142.03 58.5521 147.936 47.0915 147.936Z" fill="white"/>
<path d="M172.143 103.368C172.143 105.037 173.492 106.315 175.16 106.315C176.758 106.315 178.143 105.037 178.143 103.368C178.143 101.735 176.758 100.421 175.16 100.421C173.492 100.421 172.143 101.735 172.143 103.368Z" fill="#CE3128"/>
<path d="M180.415 145.531C180.415 146.199 179.874 146.741 179.205 146.741H171.782C171.114 146.741 170.572 146.199 170.572 145.531V113.147C170.572 112.479 171.114 111.937 171.782 111.937H179.205C179.874 111.937 180.415 112.479 180.415 113.147V145.531Z" fill="white"/>
<path d="M140.167 145.671C140.167 146.34 139.626 146.881 138.957 146.881H131.534C130.866 146.881 130.324 146.34 130.324 145.671V121.866C130.324 121.198 129.782 120.656 129.114 120.656H125.066C124.397 120.656 123.855 120.114 123.855 119.446V113.288C123.855 112.62 124.397 112.078 125.066 112.078H129.114C129.782 112.078 130.324 111.536 130.324 110.868V107.367C130.324 99.9845 133.91 93.7972 142.558 93.7972C144.824 93.7972 146.93 94.1172 149.015 94.8501C149.558 95.0412 149.861 95.6105 149.751 96.1763L148.69 101.628C148.539 102.401 147.695 102.833 146.93 102.649C146.193 102.471 145.406 102.375 144.667 102.375C141.925 102.375 140.167 104.062 140.167 107.93V110.868C140.167 111.536 140.709 112.078 141.378 112.078H147.887C148.555 112.078 149.097 112.62 149.097 113.288V119.446C149.097 120.114 148.555 120.656 147.887 120.656H141.378C140.709 120.656 140.167 121.198 140.167 121.866V145.671Z" fill="white"/>
<path d="M158.488 125.923C159.767 125.918 165.383 125.685 166.173 126.201C166.371 126.329 166.454 126.506 166.509 126.748C166.619 127.234 166.633 131.405 166.57 132.036C166.55 132.232 166.517 132.405 166.454 132.573C166.396 132.729 166.283 132.86 166.128 132.921C165.194 133.293 162.728 133.15 161.891 133.149L155.475 133.154L150.864 133.171C150.149 133.174 147.853 133.32 147.54 132.768C147.08 131.955 147.359 128.282 147.327 127.119C147.316 126.739 147.477 126.463 147.681 126.244C147.858 126.054 148.115 125.968 148.374 125.958C151.519 125.833 155.359 125.935 158.488 125.923Z" fill="white"/>
<path d="M104.389 128.812C104.389 129.856 104.312 130.822 104.157 131.739C104.063 132.293 103.57 132.679 103.009 132.679H80.44C79.6453 132.679 79.0645 133.436 79.3792 134.166C80.9173 137.732 84.1995 139.71 87.8661 139.71C91.079 139.71 93.6373 138.401 95.4134 136.592C95.9214 136.075 96.7626 136.004 97.2847 136.507L101.29 140.366C101.734 140.793 101.789 141.489 101.383 141.951C98.1482 145.631 93.4206 147.585 87.6552 147.585C77.3196 147.585 68.8823 140.694 68.8823 129.515C68.8823 118.898 76.4758 111.375 86.9521 111.375C96.5846 111.375 104.389 117.632 104.389 128.812ZM86.9521 119.25C83.2789 119.25 80.4326 121.289 79.1454 124.832C78.881 125.559 79.4602 126.281 80.2344 126.281H93.3462C94.1113 126.281 94.6891 125.575 94.4443 124.85C93.2275 121.248 90.4506 119.25 86.9521 119.25Z" fill="white"/>
<rect x="23.9678" y="154.342" width="162.064" height="1.60142" fill="url(#paint0_linear_1003_12871)"/>
<path d="M19.98 169.981C19.98 170.358 19.8911 170.713 19.7132 171.048C19.5354 171.382 19.2509 171.656 18.8598 171.869C18.4686 172.075 17.9672 172.179 17.3555 172.179H16.0113V175.187H14.7951V167.772H17.3555C17.9245 167.772 18.4046 167.872 18.7958 168.071C19.194 168.263 19.4892 168.526 19.6812 168.861C19.8804 169.195 19.98 169.568 19.98 169.981ZM17.3555 171.186C17.8178 171.186 18.1628 171.083 18.3904 170.877C18.6179 170.664 18.7317 170.365 18.7317 169.981C18.7317 169.17 18.273 168.765 17.3555 168.765H16.0113V171.186H17.3555ZM22.3561 170.162C22.5339 169.863 22.7686 169.632 23.0602 169.469C23.359 169.298 23.711 169.213 24.1164 169.213V170.472H23.807C23.3305 170.472 22.9678 170.593 22.7188 170.834C22.477 171.076 22.3561 171.496 22.3561 172.093V175.187H21.1399V169.309H22.3561V170.162ZM27.7841 175.283C27.2294 175.283 26.728 175.159 26.2799 174.91C25.8318 174.654 25.4797 174.298 25.2237 173.843C24.9676 173.381 24.8396 172.847 24.8396 172.243C24.8396 171.645 24.9712 171.115 25.2344 170.653C25.4975 170.191 25.8567 169.835 26.3119 169.586C26.7671 169.337 27.2756 169.213 27.8375 169.213C28.3994 169.213 28.9079 169.337 29.3631 169.586C29.8183 169.835 30.1774 170.191 30.4406 170.653C30.7037 171.115 30.8353 171.645 30.8353 172.243C30.8353 172.84 30.7002 173.37 30.4299 173.832C30.1597 174.294 29.7898 174.654 29.3204 174.91C28.8581 175.159 28.346 175.283 27.7841 175.283ZM27.7841 174.227C28.0971 174.227 28.3887 174.152 28.659 174.003C28.9363 173.854 29.1604 173.629 29.3311 173.331C29.5018 173.032 29.5871 172.669 29.5871 172.243C29.5871 171.816 29.5053 171.457 29.3417 171.165C29.1782 170.866 28.9612 170.642 28.691 170.493C28.4207 170.344 28.1291 170.269 27.8161 170.269C27.5032 170.269 27.2116 170.344 26.9413 170.493C26.6782 170.642 26.4684 170.866 26.3119 171.165C26.1554 171.457 26.0772 171.816 26.0772 172.243C26.0772 172.876 26.2372 173.366 26.5573 173.715C26.8844 174.056 27.2934 174.227 27.7841 174.227ZM33.2538 170.173C33.4601 169.903 33.741 169.675 34.0966 169.49C34.4523 169.305 34.8541 169.213 35.3022 169.213C35.8143 169.213 36.2801 169.341 36.6997 169.597C37.1265 169.846 37.4608 170.198 37.7026 170.653C37.9444 171.108 38.0653 171.631 38.0653 172.221C38.0653 172.812 37.9444 173.341 37.7026 173.811C37.4608 174.273 37.1265 174.636 36.6997 174.899C36.2801 175.155 35.8143 175.283 35.3022 175.283C34.8541 175.283 34.4558 175.194 34.1073 175.016C33.7588 174.831 33.4743 174.604 33.2538 174.334V177.982H32.0376V169.309H33.2538V170.173ZM36.8278 172.221C36.8278 171.816 36.7424 171.467 36.5717 171.176C36.4081 170.877 36.1877 170.653 35.9103 170.504C35.64 170.347 35.3484 170.269 35.0355 170.269C34.7296 170.269 34.438 170.347 34.1606 170.504C33.8904 170.66 33.6699 170.888 33.4992 171.186C33.3356 171.485 33.2538 171.837 33.2538 172.243C33.2538 172.648 33.3356 173.004 33.4992 173.309C33.6699 173.608 33.8904 173.836 34.1606 173.992C34.438 174.149 34.7296 174.227 35.0355 174.227C35.3484 174.227 35.64 174.149 35.9103 173.992C36.1877 173.829 36.4081 173.594 36.5717 173.288C36.7424 172.982 36.8278 172.627 36.8278 172.221ZM44.6556 172.104C44.6556 172.324 44.6414 172.524 44.6129 172.701H40.1215C40.1571 173.171 40.3313 173.548 40.6443 173.832C40.9572 174.117 41.3413 174.259 41.7965 174.259C42.4508 174.259 42.9131 173.985 43.1834 173.437H44.4956C44.3178 173.978 43.9942 174.422 43.5248 174.771C43.0625 175.112 42.4864 175.283 41.7965 175.283C41.2346 175.283 40.7296 175.159 40.2815 174.91C39.8406 174.654 39.4921 174.298 39.236 173.843C38.9871 173.381 38.8626 172.847 38.8626 172.243C38.8626 171.638 38.9835 171.108 39.2253 170.653C39.4743 170.191 39.8192 169.835 40.2602 169.586C40.7083 169.337 41.2204 169.213 41.7965 169.213C42.3512 169.213 42.8455 169.334 43.2794 169.575C43.7132 169.817 44.0511 170.159 44.2929 170.6C44.5347 171.033 44.6556 171.535 44.6556 172.104ZM43.3861 171.72C43.3789 171.272 43.2189 170.913 42.906 170.642C42.593 170.372 42.2054 170.237 41.7431 170.237C41.3235 170.237 40.9643 170.372 40.6656 170.642C40.3669 170.905 40.1891 171.265 40.1322 171.72H43.3861ZM47.0687 170.162C47.2465 169.863 47.4812 169.632 47.7728 169.469C48.0715 169.298 48.4236 169.213 48.829 169.213V170.472H48.5196C48.0431 170.472 47.6804 170.593 47.4314 170.834C47.1896 171.076 47.0687 171.496 47.0687 172.093V175.187H45.8525V169.309H47.0687V170.162ZM51.3658 170.301V173.555C51.3658 173.775 51.4156 173.935 51.5152 174.035C51.6219 174.127 51.7997 174.174 52.0486 174.174H52.7954V175.187H51.8353C51.2876 175.187 50.868 175.059 50.5764 174.803C50.2848 174.547 50.139 174.131 50.139 173.555V170.301H49.4455V169.309H50.139V167.847H51.3658V169.309H52.7954V170.301H51.3658ZM59.2079 169.309L55.602 177.95H54.3431L55.538 175.091L53.2229 169.309H54.5778L56.2314 173.789L57.9491 169.309H59.2079ZM70.7064 167.772V175.187H69.4902V170.109L67.2285 175.187H66.3857L64.1133 170.109V175.187H62.8971V167.772H64.2093L66.8124 173.587L69.4049 167.772H70.7064ZM71.8995 172.221C71.8995 171.631 72.0204 171.108 72.2623 170.653C72.5112 170.198 72.8455 169.846 73.2651 169.597C73.6918 169.341 74.1613 169.213 74.6733 169.213C75.1356 169.213 75.5375 169.305 75.8789 169.49C76.2274 169.668 76.5048 169.892 76.711 170.162V169.309H77.9379V175.187H76.711V174.312C76.5048 174.59 76.2238 174.821 75.8682 175.006C75.5126 175.191 75.1072 175.283 74.652 175.283C74.147 175.283 73.6847 175.155 73.2651 174.899C72.8455 174.636 72.5112 174.273 72.2623 173.811C72.0204 173.341 71.8995 172.812 71.8995 172.221ZM76.711 172.243C76.711 171.837 76.6257 171.485 76.455 171.186C76.2914 170.888 76.0745 170.66 75.8042 170.504C75.5339 170.347 75.2423 170.269 74.9294 170.269C74.6164 170.269 74.3248 170.347 74.0546 170.504C73.7843 170.653 73.5638 170.877 73.3931 171.176C73.2295 171.467 73.1478 171.816 73.1478 172.221C73.1478 172.627 73.2295 172.982 73.3931 173.288C73.5638 173.594 73.7843 173.829 74.0546 173.992C74.332 174.149 74.6236 174.227 74.9294 174.227C75.2423 174.227 75.5339 174.149 75.8042 173.992C76.0745 173.836 76.2914 173.608 76.455 173.309C76.6257 173.004 76.711 172.648 76.711 172.243ZM82.5012 169.213C82.9635 169.213 83.376 169.309 83.7387 169.501C84.1086 169.693 84.3966 169.977 84.6029 170.354C84.8091 170.731 84.9123 171.186 84.9123 171.72V175.187H83.7067V171.901C83.7067 171.375 83.5751 170.973 83.312 170.696C83.0488 170.411 82.6897 170.269 82.2345 170.269C81.7793 170.269 81.4166 170.411 81.1463 170.696C80.8831 170.973 80.7516 171.375 80.7516 171.901V175.187H79.5353V169.309H80.7516V169.981C80.9507 169.739 81.2032 169.551 81.509 169.415C81.822 169.28 82.1527 169.213 82.5012 169.213ZM86.0582 172.221C86.0582 171.631 86.1791 171.108 86.4209 170.653C86.6699 170.198 87.0042 169.846 87.4238 169.597C87.8505 169.341 88.3199 169.213 88.832 169.213C89.2943 169.213 89.6962 169.305 90.0376 169.49C90.3861 169.668 90.6635 169.892 90.8697 170.162V169.309H92.0966V175.187H90.8697V174.312C90.6635 174.59 90.3825 174.821 90.0269 175.006C89.6713 175.191 89.2659 175.283 88.8107 175.283C88.3057 175.283 87.8434 175.155 87.4238 174.899C87.0042 174.636 86.6699 174.273 86.4209 173.811C86.1791 173.341 86.0582 172.812 86.0582 172.221ZM90.8697 172.243C90.8697 171.837 90.7844 171.485 90.6137 171.186C90.4501 170.888 90.2332 170.66 89.9629 170.504C89.6926 170.347 89.401 170.269 89.0881 170.269C88.7751 170.269 88.4835 170.347 88.2133 170.504C87.943 170.653 87.7225 170.877 87.5518 171.176C87.3882 171.467 87.3064 171.816 87.3064 172.221C87.3064 172.627 87.3882 172.982 87.5518 173.288C87.7225 173.594 87.943 173.829 88.2133 173.992C88.4906 174.149 88.7822 174.227 89.0881 174.227C89.401 174.227 89.6926 174.149 89.9629 173.992C90.2332 173.836 90.4501 173.608 90.6137 173.309C90.7844 173.004 90.8697 172.648 90.8697 172.243ZM96.0624 169.213C96.5176 169.213 96.9195 169.305 97.268 169.49C97.6236 169.668 97.901 169.892 98.1001 170.162V169.309H99.327V175.283C99.327 175.824 99.2132 176.304 98.9856 176.723C98.758 177.15 98.4273 177.484 97.9934 177.726C97.5667 177.968 97.0546 178.089 96.4572 178.089C95.6606 178.089 94.9991 177.9 94.4728 177.523C93.9465 177.154 93.6478 176.649 93.5767 176.009H94.7822C94.8747 176.314 95.0703 176.56 95.369 176.745C95.6748 176.937 96.0375 177.033 96.4572 177.033C96.9479 177.033 97.3427 176.883 97.6414 176.585C97.9472 176.286 98.1001 175.852 98.1001 175.283V174.302C97.8939 174.579 97.6129 174.814 97.2573 175.006C96.9088 175.191 96.5105 175.283 96.0624 175.283C95.5503 175.283 95.0809 175.155 94.6542 174.899C94.2346 174.636 93.9003 174.273 93.6514 173.811C93.4095 173.341 93.2886 172.812 93.2886 172.221C93.2886 171.631 93.4095 171.108 93.6514 170.653C93.9003 170.198 94.2346 169.846 94.6542 169.597C95.0809 169.341 95.5503 169.213 96.0624 169.213ZM98.1001 172.243C98.1001 171.837 98.0148 171.485 97.8441 171.186C97.6805 170.888 97.4636 170.66 97.1933 170.504C96.923 170.347 96.6314 170.269 96.3185 170.269C96.0055 170.269 95.7139 170.347 95.4437 170.504C95.1734 170.653 94.9529 170.877 94.7822 171.176C94.6186 171.467 94.5368 171.816 94.5368 172.221C94.5368 172.627 94.6186 172.982 94.7822 173.288C94.9529 173.594 95.1734 173.829 95.4437 173.992C95.721 174.149 96.0126 174.227 96.3185 174.227C96.6314 174.227 96.923 174.149 97.1933 173.992C97.4636 173.836 97.6805 173.608 97.8441 173.309C98.0148 173.004 98.1001 172.648 98.1001 172.243ZM106.312 172.104C106.312 172.324 106.298 172.524 106.269 172.701H101.778C101.813 173.171 101.988 173.548 102.301 173.832C102.614 174.117 102.998 174.259 103.453 174.259C104.107 174.259 104.57 173.985 104.84 173.437H106.152C105.974 173.978 105.651 174.422 105.181 174.771C104.719 175.112 104.143 175.283 103.453 175.283C102.891 175.283 102.386 175.159 101.938 174.91C101.497 174.654 101.148 174.298 100.892 173.843C100.643 173.381 100.519 172.847 100.519 172.243C100.519 171.638 100.64 171.108 100.882 170.653C101.131 170.191 101.476 169.835 101.917 169.586C102.365 169.337 102.877 169.213 103.453 169.213C104.008 169.213 104.502 169.334 104.936 169.575C105.37 169.817 105.707 170.159 105.949 170.6C106.191 171.033 106.312 171.535 106.312 172.104ZM105.042 171.72C105.035 171.272 104.875 170.913 104.562 170.642C104.249 170.372 103.862 170.237 103.4 170.237C102.98 170.237 102.621 170.372 102.322 170.642C102.023 170.905 101.845 171.265 101.789 171.72H105.042ZM114.625 169.213C115.087 169.213 115.5 169.309 115.862 169.501C116.232 169.693 116.52 169.977 116.726 170.354C116.94 170.731 117.047 171.186 117.047 171.72V175.187H115.841V171.901C115.841 171.375 115.709 170.973 115.446 170.696C115.183 170.411 114.824 170.269 114.369 170.269C113.914 170.269 113.551 170.411 113.281 170.696C113.017 170.973 112.886 171.375 112.886 171.901V175.187H111.68V171.901C111.68 171.375 111.549 170.973 111.286 170.696C111.022 170.411 110.663 170.269 110.208 170.269C109.753 170.269 109.39 170.411 109.12 170.696C108.857 170.973 108.725 171.375 108.725 171.901V175.187H107.509V169.309H108.725V169.981C108.924 169.739 109.177 169.551 109.483 169.415C109.788 169.28 110.116 169.213 110.464 169.213C110.933 169.213 111.353 169.312 111.723 169.511C112.093 169.711 112.377 169.999 112.576 170.376C112.754 170.02 113.032 169.739 113.409 169.533C113.786 169.319 114.191 169.213 114.625 169.213ZM123.982 172.104C123.982 172.324 123.967 172.524 123.939 172.701H119.448C119.483 173.171 119.657 173.548 119.97 173.832C120.283 174.117 120.667 174.259 121.123 174.259C121.777 174.259 122.239 173.985 122.509 173.437H123.822C123.644 173.978 123.32 174.422 122.851 174.771C122.389 175.112 121.812 175.283 121.123 175.283C120.561 175.283 120.056 175.159 119.608 174.91C119.167 174.654 118.818 174.298 118.562 173.843C118.313 173.381 118.189 172.847 118.189 172.243C118.189 171.638 118.31 171.108 118.551 170.653C118.8 170.191 119.145 169.835 119.586 169.586C120.034 169.337 120.546 169.213 121.123 169.213C121.677 169.213 122.172 169.334 122.605 169.575C123.039 169.817 123.377 170.159 123.619 170.6C123.861 171.033 123.982 171.535 123.982 172.104ZM122.712 171.72C122.705 171.272 122.545 170.913 122.232 170.642C121.919 170.372 121.532 170.237 121.069 170.237C120.65 170.237 120.29 170.372 119.992 170.642C119.693 170.905 119.515 171.265 119.458 171.72H122.712ZM128.144 169.213C128.607 169.213 129.019 169.309 129.382 169.501C129.752 169.693 130.04 169.977 130.246 170.354C130.452 170.731 130.556 171.186 130.556 171.72V175.187H129.35V171.901C129.35 171.375 129.218 170.973 128.955 170.696C128.692 170.411 128.333 170.269 127.878 170.269C127.423 170.269 127.06 170.411 126.79 170.696C126.526 170.973 126.395 171.375 126.395 171.901V175.187H125.179V169.309H126.395V169.981C126.594 169.739 126.846 169.551 127.152 169.415C127.465 169.28 127.796 169.213 128.144 169.213ZM133.526 170.301V173.555C133.526 173.775 133.576 173.935 133.675 174.035C133.782 174.127 133.96 174.174 134.209 174.174H134.955V175.187H133.995C133.448 175.187 133.028 175.059 132.736 174.803C132.445 174.547 132.299 174.131 132.299 173.555V170.301H131.605V169.309H132.299V167.847H133.526V169.309H134.955V170.301H133.526ZM146.657 167.772V175.187H145.441V170.109L143.179 175.187H142.336L140.064 170.109V175.187H138.848V167.772H140.16L142.763 173.587L145.355 167.772H146.657ZM147.85 172.221C147.85 171.631 147.971 171.108 148.213 170.653C148.462 170.198 148.796 169.846 149.216 169.597C149.642 169.341 150.112 169.213 150.624 169.213C151.086 169.213 151.488 169.305 151.829 169.49C152.178 169.668 152.455 169.892 152.662 170.162V169.309H153.888V175.187H152.662V174.312C152.455 174.59 152.174 174.821 151.819 175.006C151.463 175.191 151.058 175.283 150.603 175.283C150.098 175.283 149.635 175.155 149.216 174.899C148.796 174.636 148.462 174.273 148.213 173.811C147.971 173.341 147.85 172.812 147.85 172.221ZM152.662 172.243C152.662 171.837 152.576 171.485 152.406 171.186C152.242 170.888 152.025 170.66 151.755 170.504C151.484 170.347 151.193 170.269 150.88 170.269C150.567 170.269 150.275 170.347 150.005 170.504C149.735 170.653 149.514 170.877 149.344 171.176C149.18 171.467 149.098 171.816 149.098 172.221C149.098 172.627 149.18 172.982 149.344 173.288C149.514 173.594 149.735 173.829 150.005 173.992C150.282 174.149 150.574 174.227 150.88 174.227C151.193 174.227 151.484 174.149 151.755 173.992C152.025 173.836 152.242 173.608 152.406 173.309C152.576 173.004 152.662 172.648 152.662 172.243ZM155.08 172.221C155.08 171.631 155.201 171.108 155.443 170.653C155.692 170.198 156.026 169.846 156.446 169.597C156.873 169.341 157.346 169.213 157.865 169.213C158.249 169.213 158.626 169.298 158.996 169.469C159.373 169.632 159.671 169.853 159.892 170.13V167.292H161.119V175.187H159.892V174.302C159.693 174.586 159.415 174.821 159.06 175.006C158.711 175.191 158.309 175.283 157.854 175.283C157.342 175.283 156.873 175.155 156.446 174.899C156.026 174.636 155.692 174.273 155.443 173.811C155.201 173.341 155.08 172.812 155.08 172.221ZM159.892 172.243C159.892 171.837 159.807 171.485 159.636 171.186C159.472 170.888 159.255 170.66 158.985 170.504C158.715 170.347 158.423 170.269 158.11 170.269C157.797 170.269 157.506 170.347 157.236 170.504C156.965 170.653 156.745 170.877 156.574 171.176C156.41 171.467 156.329 171.816 156.329 172.221C156.329 172.627 156.41 172.982 156.574 173.288C156.745 173.594 156.965 173.829 157.236 173.992C157.513 174.149 157.805 174.227 158.11 174.227C158.423 174.227 158.715 174.149 158.985 173.992C159.255 173.836 159.472 173.608 159.636 173.309C159.807 173.004 159.892 172.648 159.892 172.243ZM168.104 172.104C168.104 172.324 168.09 172.524 168.061 172.701H163.57C163.605 173.171 163.78 173.548 164.093 173.832C164.405 174.117 164.79 174.259 165.245 174.259C165.899 174.259 166.361 173.985 166.632 173.437H167.944C167.766 173.978 167.442 174.422 166.973 174.771C166.511 175.112 165.935 175.283 165.245 175.283C164.683 175.283 164.178 175.159 163.73 174.91C163.289 174.654 162.94 174.298 162.684 173.843C162.435 173.381 162.311 172.847 162.311 172.243C162.311 171.638 162.432 171.108 162.674 170.653C162.923 170.191 163.267 169.835 163.708 169.586C164.157 169.337 164.669 169.213 165.245 169.213C165.799 169.213 166.294 169.334 166.728 169.575C167.161 169.817 167.499 170.159 167.741 170.6C167.983 171.033 168.104 171.535 168.104 172.104ZM166.834 171.72C166.827 171.272 166.667 170.913 166.354 170.642C166.041 170.372 165.654 170.237 165.191 170.237C164.772 170.237 164.413 170.372 164.114 170.642C163.815 170.905 163.637 171.265 163.58 171.72H166.834ZM173.288 168.754V170.93H175.849V171.923H173.288V174.195H176.169V175.187H172.072V167.762H176.169V168.754H173.288ZM177.261 172.221C177.261 171.631 177.382 171.108 177.624 170.653C177.873 170.198 178.207 169.846 178.627 169.597C179.054 169.341 179.523 169.213 180.035 169.213C180.497 169.213 180.899 169.305 181.241 169.49C181.589 169.668 181.867 169.892 182.073 170.162V169.309H183.3V175.187H182.073V174.312C181.867 174.59 181.586 174.821 181.23 175.006C180.874 175.191 180.469 175.283 180.014 175.283C179.509 175.283 179.047 175.155 178.627 174.899C178.207 174.636 177.873 174.273 177.624 173.811C177.382 173.341 177.261 172.812 177.261 172.221ZM182.073 172.243C182.073 171.837 181.988 171.485 181.817 171.186C181.653 170.888 181.436 170.66 181.166 170.504C180.896 170.347 180.604 170.269 180.291 170.269C179.978 170.269 179.687 170.347 179.416 170.504C179.146 170.653 178.926 170.877 178.755 171.176C178.591 171.467 178.51 171.816 178.51 172.221C178.51 172.627 178.591 172.982 178.755 173.288C178.926 173.594 179.146 173.829 179.416 173.992C179.694 174.149 179.985 174.227 180.291 174.227C180.604 174.227 180.896 174.149 181.166 173.992C181.436 173.836 181.653 173.608 181.817 173.309C181.988 173.004 182.073 172.648 182.073 172.243ZM187.031 175.283C186.569 175.283 186.153 175.201 185.783 175.038C185.42 174.867 185.132 174.639 184.919 174.355C184.705 174.063 184.591 173.74 184.577 173.384H185.836C185.857 173.633 185.975 173.843 186.188 174.014C186.409 174.177 186.682 174.259 187.01 174.259C187.351 174.259 187.614 174.195 187.799 174.067C187.991 173.932 188.087 173.761 188.087 173.555C188.087 173.334 187.98 173.171 187.767 173.064C187.561 172.957 187.23 172.84 186.775 172.712C186.334 172.591 185.975 172.474 185.697 172.36C185.42 172.246 185.178 172.072 184.972 171.837C184.773 171.602 184.673 171.293 184.673 170.909C184.673 170.596 184.766 170.312 184.951 170.056C185.135 169.792 185.399 169.586 185.74 169.437C186.088 169.287 186.487 169.213 186.935 169.213C187.603 169.213 188.14 169.383 188.546 169.725C188.958 170.059 189.179 170.518 189.207 171.101H187.991C187.97 170.838 187.863 170.628 187.671 170.472C187.479 170.315 187.219 170.237 186.892 170.237C186.572 170.237 186.327 170.297 186.156 170.418C185.985 170.539 185.9 170.699 185.9 170.898C185.9 171.055 185.957 171.186 186.071 171.293C186.185 171.4 186.323 171.485 186.487 171.549C186.65 171.606 186.892 171.681 187.212 171.773C187.639 171.887 187.987 172.004 188.258 172.125C188.535 172.239 188.773 172.41 188.973 172.637C189.172 172.865 189.275 173.167 189.282 173.544C189.282 173.878 189.189 174.177 189.005 174.44C188.82 174.703 188.556 174.91 188.215 175.059C187.881 175.208 187.486 175.283 187.031 175.283ZM195.888 169.309L192.282 177.95H191.023L192.218 175.091L189.903 169.309H191.258L192.911 173.789L194.629 169.309H195.888Z" fill="white"/>
<path d="M24 90.9146C49.5694 80.6655 118.1 66.3167 185.744 90.9146C159.907 76.2882 91.0036 55.8114 24 90.9146Z" fill="white"/>
<path d="M95.2634 24.4555V33.1032L111.918 51.6797V67.694L125.37 68.6548L125.69 14.3665L140.424 25.2562V46.5552L133.537 49.5979V69.9359L148.431 72.8185V48.9573L155.157 53.4413V73.9395L158.36 75.3808V51.1993L147.63 43.9929L144.267 45.4342V23.0142L124.089 7L95.2634 24.4555Z" fill="white"/>
<path d="M96.5444 52.1602V67.5342C88.644 67.9612 68.7117 70.0321 52.1851 74.9004V52.1602L74.1245 29.2598L96.5444 52.1602ZM68.6802 56.667V62H73.7085V56.667H68.6802ZM74.6509 56.667V62H79.6802V56.667H74.6509ZM68.6802 50V55.333H73.7085V50H68.6802ZM74.6509 50V55.333H79.6802V50H74.6509Z" fill="white"/>
<defs>
<linearGradient id="paint0_linear_1003_12871" x1="23.9678" y1="155.143" x2="186.032" y2="155.143" gradientUnits="userSpaceOnUse">
<stop stop-color="#CE3128" stop-opacity="0.03"/>
<stop offset="0.216346" stop-color="#CE3128"/>
<stop offset="0.538462" stop-color="#CE3128"/>
<stop offset="0.846154" stop-color="#CE3128"/>
<stop offset="1" stop-color="#CE3128" stop-opacity="0.03"/>
</linearGradient>
</defs>
</svg>
