<svg width="211" height="192" viewBox="0 0 211 192" fill="none" xmlns="http://www.w3.org/2000/svg">
<path d="M121.207 147.585C113.894 147.585 109.605 142.663 109.605 134.999V95.3589C109.605 94.6905 110.147 94.1487 110.816 94.1487H118.239C118.907 94.1487 119.449 94.6905 119.449 95.3589V133.733C119.449 137.319 121.347 138.796 123.808 138.796L123.562 146.445C123.54 147.111 122.984 147.634 122.318 147.616L121.207 147.585Z" fill="#07254B"/>
<path d="M47.0914 147.936C39.7967 147.936 34.2517 145.643 30.4564 142.958C29.9516 142.601 29.8308 141.913 30.1561 141.387L33.9965 135.179C34.3791 134.56 35.2157 134.419 35.8089 134.84C39.1593 137.217 43.0398 138.585 47.0914 138.585C52.2944 138.585 54.8255 136.405 54.8255 133.241C54.8255 124.452 30.2169 128.952 30.2169 111.093C30.2169 102.727 37.1776 96.6096 47.7242 96.6096C53.7016 96.6096 58.8985 98.2906 62.8156 100.821C63.3526 101.167 63.4896 101.883 63.1491 102.424L59.3019 108.537C58.9325 109.124 58.1478 109.278 57.5603 108.909C54.3166 106.875 51.027 105.961 47.7945 105.961C43.2946 105.961 40.6932 108.351 40.6932 111.164C40.6932 119.742 65.3018 115.382 65.3018 133.241C65.3018 142.03 58.552 147.936 47.0914 147.936Z" fill="#07254B"/>
<path d="M172.143 103.368C172.143 105.037 173.492 106.315 175.16 106.315C176.758 106.315 178.143 105.037 178.143 103.368C178.143 101.735 176.758 100.421 175.16 100.421C173.492 100.421 172.143 101.735 172.143 103.368Z" fill="#CE3128"/>
<path d="M180.415 145.531C180.415 146.199 179.874 146.741 179.205 146.741H171.782C171.114 146.741 170.572 146.199 170.572 145.531V113.147C170.572 112.479 171.114 111.937 171.782 111.937H179.205C179.874 111.937 180.415 112.479 180.415 113.147V145.531Z" fill="#07254B"/>
<path d="M140.167 145.671C140.167 146.34 139.626 146.881 138.957 146.881H131.534C130.866 146.881 130.324 146.34 130.324 145.671V121.866C130.324 121.198 129.782 120.656 129.114 120.656H125.066C124.397 120.656 123.855 120.114 123.855 119.446V113.288C123.855 112.62 124.397 112.078 125.066 112.078H129.114C129.782 112.078 130.324 111.536 130.324 110.868V107.367C130.324 99.9844 133.91 93.7971 142.558 93.7971C144.824 93.7971 146.93 94.1171 149.015 94.85C149.558 95.0411 149.861 95.6104 149.751 96.1762L148.69 101.628C148.539 102.401 147.695 102.833 146.93 102.649C146.193 102.471 145.406 102.375 144.667 102.375C141.925 102.375 140.167 104.062 140.167 107.93V110.868C140.167 111.536 140.709 112.078 141.378 112.078H147.887C148.555 112.078 149.097 112.62 149.097 113.288V119.446C149.097 120.114 148.555 120.656 147.887 120.656H141.378C140.709 120.656 140.167 121.198 140.167 121.866V145.671Z" fill="#07254B"/>
<path d="M158.488 125.923C159.767 125.918 165.383 125.685 166.173 126.201C166.371 126.329 166.454 126.506 166.509 126.748C166.619 127.234 166.633 131.405 166.57 132.036C166.55 132.232 166.517 132.405 166.454 132.573C166.396 132.729 166.283 132.86 166.128 132.921C165.194 133.293 162.728 133.15 161.891 133.149L155.475 133.154L150.864 133.171C150.149 133.174 147.853 133.32 147.54 132.768C147.08 131.955 147.359 128.282 147.327 127.119C147.316 126.739 147.477 126.463 147.681 126.244C147.858 126.054 148.115 125.968 148.374 125.958C151.519 125.833 155.359 125.935 158.488 125.923Z" fill="#07254B"/>
<path d="M104.389 128.812C104.389 129.856 104.312 130.822 104.157 131.739C104.063 132.293 103.57 132.679 103.009 132.679H80.44C79.6453 132.679 79.0645 133.436 79.3792 134.166C80.9173 137.732 84.1995 139.71 87.8661 139.71C91.079 139.71 93.6373 138.401 95.4134 136.592C95.9214 136.075 96.7626 136.004 97.2847 136.507L101.29 140.366C101.734 140.793 101.789 141.489 101.383 141.951C98.1482 145.631 93.4206 147.585 87.6552 147.585C77.3196 147.585 68.8823 140.694 68.8823 129.515C68.8823 118.898 76.4758 111.375 86.9521 111.375C96.5846 111.375 104.389 117.632 104.389 128.812ZM86.9521 119.25C83.2789 119.25 80.4326 121.289 79.1454 124.832C78.881 125.559 79.4602 126.281 80.2344 126.281H93.3462C94.1113 126.281 94.6891 125.575 94.4443 124.85C93.2275 121.248 90.4506 119.25 86.9521 119.25Z" fill="#07254B"/>
<path d="M186.032 154.342H23.9678V155.943H186.032V154.342Z" fill="url(#paint0_linear_1965_25744)"/>
<path d="M19.9798 169.981C19.9798 170.358 19.8909 170.713 19.713 171.048C19.5352 171.382 19.2507 171.656 18.8596 171.869C18.4684 172.075 17.967 172.179 17.3553 172.179H16.0111V175.187H14.7949V167.772H17.3553C17.9243 167.772 18.4044 167.872 18.7956 168.071C19.1938 168.263 19.489 168.526 19.681 168.861C19.8802 169.195 19.9798 169.568 19.9798 169.981ZM17.3553 171.186C17.8176 171.186 18.1626 171.083 18.3902 170.877C18.6177 170.664 18.7315 170.365 18.7315 169.981C18.7315 169.17 18.2728 168.765 17.3553 168.765H16.0111V171.186H17.3553ZM22.3559 170.162C22.5337 169.863 22.7684 169.632 23.06 169.469C23.3588 169.298 23.7108 169.213 24.1162 169.213V170.472H23.8068C23.3303 170.472 22.9676 170.593 22.7186 170.834C22.4768 171.076 22.3559 171.496 22.3559 172.093V175.187H21.1397V169.309H22.3559V170.162ZM27.7839 175.283C27.2292 175.283 26.7278 175.159 26.2797 174.91C25.8316 174.654 25.4795 174.298 25.2235 173.843C24.9674 173.381 24.8394 172.847 24.8394 172.243C24.8394 171.645 24.971 171.115 25.2342 170.653C25.4973 170.191 25.8565 169.835 26.3117 169.586C26.7669 169.337 27.2754 169.213 27.8373 169.213C28.3992 169.213 28.9077 169.337 29.3629 169.586C29.8181 169.835 30.1772 170.191 30.4404 170.653C30.7035 171.115 30.8351 171.645 30.8351 172.243C30.8351 172.84 30.7 173.37 30.4297 173.832C30.1595 174.294 29.7896 174.654 29.3202 174.91C28.8579 175.159 28.3458 175.283 27.7839 175.283ZM27.7839 174.227C28.0969 174.227 28.3885 174.152 28.6588 174.003C28.9361 173.854 29.1602 173.629 29.3309 173.331C29.5016 173.032 29.5869 172.669 29.5869 172.243C29.5869 171.816 29.5051 171.457 29.3415 171.165C29.178 170.866 28.961 170.642 28.6908 170.493C28.4205 170.344 28.1289 170.269 27.8159 170.269C27.503 170.269 27.2114 170.344 26.9411 170.493C26.678 170.642 26.4682 170.866 26.3117 171.165C26.1552 171.457 26.077 171.816 26.077 172.243C26.077 172.876 26.237 173.366 26.5571 173.715C26.8842 174.056 27.2932 174.227 27.7839 174.227ZM33.2536 170.173C33.4599 169.903 33.7408 169.675 34.0964 169.49C34.4521 169.305 34.8539 169.213 35.302 169.213C35.8141 169.213 36.2799 169.341 36.6995 169.597C37.1263 169.846 37.4606 170.198 37.7024 170.653C37.9442 171.108 38.0651 171.631 38.0651 172.221C38.0651 172.812 37.9442 173.341 37.7024 173.811C37.4606 174.273 37.1263 174.636 36.6995 174.899C36.2799 175.155 35.8141 175.283 35.302 175.283C34.8539 175.283 34.4556 175.194 34.1071 175.016C33.7586 174.831 33.4741 174.604 33.2536 174.334V177.982H32.0374V169.309H33.2536V170.173ZM36.8276 172.221C36.8276 171.816 36.7422 171.467 36.5715 171.176C36.4079 170.877 36.1875 170.653 35.9101 170.504C35.6398 170.347 35.3482 170.269 35.0353 170.269C34.7294 170.269 34.4378 170.347 34.1604 170.504C33.8902 170.66 33.6697 170.888 33.499 171.186C33.3354 171.485 33.2536 171.837 33.2536 172.243C33.2536 172.648 33.3354 173.004 33.499 173.309C33.6697 173.608 33.8902 173.836 34.1604 173.992C34.4378 174.149 34.7294 174.227 35.0353 174.227C35.3482 174.227 35.6398 174.149 35.9101 173.992C36.1875 173.829 36.4079 173.594 36.5715 173.288C36.7422 172.982 36.8276 172.627 36.8276 172.221ZM44.6554 172.104C44.6554 172.324 44.6412 172.524 44.6127 172.701H40.1213C40.1569 173.171 40.3311 173.548 40.6441 173.832C40.957 174.117 41.3411 174.259 41.7963 174.259C42.4506 174.259 42.9129 173.985 43.1832 173.437H44.4954C44.3176 173.978 43.994 174.422 43.5246 174.771C43.0623 175.112 42.4862 175.283 41.7963 175.283C41.2344 175.283 40.7294 175.159 40.2813 174.91C39.8404 174.654 39.4919 174.298 39.2358 173.843C38.9869 173.381 38.8624 172.847 38.8624 172.243C38.8624 171.638 38.9833 171.108 39.2251 170.653C39.4741 170.191 39.819 169.835 40.26 169.586C40.7081 169.337 41.2202 169.213 41.7963 169.213C42.351 169.213 42.8453 169.334 43.2792 169.575C43.713 169.817 44.0509 170.159 44.2927 170.6C44.5345 171.033 44.6554 171.535 44.6554 172.104ZM43.3859 171.72C43.3787 171.272 43.2187 170.913 42.9058 170.642C42.5928 170.372 42.2052 170.237 41.7429 170.237C41.3233 170.237 40.9641 170.372 40.6654 170.642C40.3667 170.905 40.1889 171.265 40.132 171.72H43.3859ZM47.0685 170.162C47.2463 169.863 47.481 169.632 47.7726 169.469C48.0713 169.298 48.4234 169.213 48.8288 169.213V170.472H48.5194C48.0429 170.472 47.6802 170.593 47.4312 170.834C47.1894 171.076 47.0685 171.496 47.0685 172.093V175.187H45.8523V169.309H47.0685V170.162ZM51.3656 170.301V173.555C51.3656 173.775 51.4154 173.935 51.515 174.035C51.6217 174.127 51.7995 174.174 52.0484 174.174H52.7952V175.187H51.8351C51.2874 175.187 50.8678 175.059 50.5762 174.803C50.2846 174.547 50.1388 174.131 50.1388 173.555V170.301H49.4453V169.309H50.1388V167.847H51.3656V169.309H52.7952V170.301H51.3656ZM59.2077 169.309L55.6018 177.95H54.3429L55.5378 175.091L53.2227 169.309H54.5776L56.2312 173.789L57.9489 169.309H59.2077ZM70.7062 167.772V175.187H69.49V170.109L67.2283 175.187H66.3855L64.1131 170.109V175.187H62.8969V167.772H64.2091L66.8122 173.587L69.4047 167.772H70.7062ZM71.8993 172.221C71.8993 171.631 72.0202 171.108 72.2621 170.653C72.511 170.198 72.8453 169.846 73.2649 169.597C73.6916 169.341 74.1611 169.213 74.6731 169.213C75.1354 169.213 75.5373 169.305 75.8787 169.49C76.2272 169.668 76.5046 169.892 76.7108 170.162V169.309H77.9377V175.187H76.7108V174.312C76.5046 174.59 76.2236 174.821 75.868 175.006C75.5124 175.191 75.107 175.283 74.6518 175.283C74.1468 175.283 73.6845 175.155 73.2649 174.899C72.8453 174.636 72.511 174.273 72.2621 173.811C72.0202 173.341 71.8993 172.812 71.8993 172.221ZM76.7108 172.243C76.7108 171.837 76.6255 171.485 76.4548 171.186C76.2912 170.888 76.0743 170.66 75.804 170.504C75.5337 170.347 75.2421 170.269 74.9292 170.269C74.6162 170.269 74.3246 170.347 74.0544 170.504C73.7841 170.653 73.5636 170.877 73.3929 171.176C73.2293 171.467 73.1476 171.816 73.1476 172.221C73.1476 172.627 73.2293 172.982 73.3929 173.288C73.5636 173.594 73.7841 173.829 74.0544 173.992C74.3318 174.149 74.6234 174.227 74.9292 174.227C75.2421 174.227 75.5337 174.149 75.804 173.992C76.0743 173.836 76.2912 173.608 76.4548 173.309C76.6255 173.004 76.7108 172.648 76.7108 172.243ZM82.501 169.213C82.9633 169.213 83.3758 169.309 83.7385 169.501C84.1084 169.693 84.3964 169.977 84.6027 170.354C84.8089 170.731 84.9121 171.186 84.9121 171.72V175.187H83.7065V171.901C83.7065 171.375 83.5749 170.973 83.3118 170.696C83.0486 170.411 82.6895 170.269 82.2343 170.269C81.7791 170.269 81.4164 170.411 81.1461 170.696C80.8829 170.973 80.7514 171.375 80.7514 171.901V175.187H79.5351V169.309H80.7514V169.981C80.9505 169.739 81.203 169.551 81.5088 169.415C81.8218 169.28 82.1525 169.213 82.501 169.213ZM86.058 172.221C86.058 171.631 86.1789 171.108 86.4207 170.653C86.6697 170.198 87.004 169.846 87.4236 169.597C87.8503 169.341 88.3197 169.213 88.8318 169.213C89.2941 169.213 89.696 169.305 90.0374 169.49C90.3859 169.668 90.6633 169.892 90.8695 170.162V169.309H92.0964V175.187H90.8695V174.312C90.6633 174.59 90.3823 174.821 90.0267 175.006C89.6711 175.191 89.2657 175.283 88.8105 175.283C88.3055 175.283 87.8432 175.155 87.4236 174.899C87.004 174.636 86.6697 174.273 86.4207 173.811C86.1789 173.341 86.058 172.812 86.058 172.221ZM90.8695 172.243C90.8695 171.837 90.7842 171.485 90.6135 171.186C90.4499 170.888 90.233 170.66 89.9627 170.504C89.6924 170.347 89.4008 170.269 89.0879 170.269C88.7749 170.269 88.4833 170.347 88.2131 170.504C87.9428 170.653 87.7223 170.877 87.5516 171.176C87.388 171.467 87.3062 171.816 87.3062 172.221C87.3062 172.627 87.388 172.982 87.5516 173.288C87.7223 173.594 87.9428 173.829 88.2131 173.992C88.4904 174.149 88.782 174.227 89.0879 174.227C89.4008 174.227 89.6924 174.149 89.9627 173.992C90.233 173.836 90.4499 173.608 90.6135 173.309C90.7842 173.004 90.8695 172.648 90.8695 172.243ZM96.0622 169.213C96.5174 169.213 96.9193 169.305 97.2678 169.49C97.6234 169.668 97.9008 169.892 98.0999 170.162V169.309H99.3268V175.283C99.3268 175.824 99.213 176.304 98.9854 176.723C98.7578 177.15 98.4271 177.484 97.9932 177.726C97.5665 177.968 97.0544 178.089 96.457 178.089C95.6604 178.089 94.9989 177.9 94.4726 177.523C93.9463 177.154 93.6476 176.649 93.5765 176.009H94.782C94.8745 176.314 95.0701 176.56 95.3688 176.745C95.6746 176.937 96.0373 177.033 96.457 177.033C96.9477 177.033 97.3425 176.883 97.6412 176.585C97.947 176.286 98.0999 175.852 98.0999 175.283V174.302C97.8937 174.579 97.6127 174.814 97.2571 175.006C96.9086 175.191 96.5103 175.283 96.0622 175.283C95.5501 175.283 95.0807 175.155 94.654 174.899C94.2344 174.636 93.9001 174.273 93.6512 173.811C93.4093 173.341 93.2884 172.812 93.2884 172.221C93.2884 171.631 93.4093 171.108 93.6512 170.653C93.9001 170.198 94.2344 169.846 94.654 169.597C95.0807 169.341 95.5501 169.213 96.0622 169.213ZM98.0999 172.243C98.0999 171.837 98.0146 171.485 97.8439 171.186C97.6803 170.888 97.4634 170.66 97.1931 170.504C96.9228 170.347 96.6312 170.269 96.3183 170.269C96.0053 170.269 95.7137 170.347 95.4435 170.504C95.1732 170.653 94.9527 170.877 94.782 171.176C94.6184 171.467 94.5366 171.816 94.5366 172.221C94.5366 172.627 94.6184 172.982 94.782 173.288C94.9527 173.594 95.1732 173.829 95.4435 173.992C95.7208 174.149 96.0124 174.227 96.3183 174.227C96.6312 174.227 96.9228 174.149 97.1931 173.992C97.4634 173.836 97.6803 173.608 97.8439 173.309C98.0146 173.004 98.0999 172.648 98.0999 172.243ZM106.312 172.104C106.312 172.324 106.298 172.524 106.269 172.701H101.778C101.813 173.171 101.988 173.548 102.301 173.832C102.614 174.117 102.998 174.259 103.453 174.259C104.107 174.259 104.57 173.985 104.84 173.437H106.152C105.974 173.978 105.651 174.422 105.181 174.771C104.719 175.112 104.143 175.283 103.453 175.283C102.891 175.283 102.386 175.159 101.938 174.91C101.497 174.654 101.148 174.298 100.892 173.843C100.643 173.381 100.519 172.847 100.519 172.243C100.519 171.638 100.64 171.108 100.882 170.653C101.131 170.191 101.476 169.835 101.917 169.586C102.365 169.337 102.877 169.213 103.453 169.213C104.008 169.213 104.502 169.334 104.936 169.575C105.37 169.817 105.707 170.159 105.949 170.6C106.191 171.033 106.312 171.535 106.312 172.104ZM105.042 171.72C105.035 171.272 104.875 170.913 104.562 170.642C104.249 170.372 103.862 170.237 103.4 170.237C102.98 170.237 102.621 170.372 102.322 170.642C102.023 170.905 101.845 171.265 101.789 171.72H105.042ZM114.625 169.213C115.087 169.213 115.5 169.309 115.862 169.501C116.232 169.693 116.52 169.977 116.726 170.354C116.94 170.731 117.047 171.186 117.047 171.72V175.187H115.841V171.901C115.841 171.375 115.709 170.973 115.446 170.696C115.183 170.411 114.824 170.269 114.369 170.269C113.914 170.269 113.551 170.411 113.281 170.696C113.017 170.973 112.886 171.375 112.886 171.901V175.187H111.68V171.901C111.68 171.375 111.549 170.973 111.286 170.696C111.022 170.411 110.663 170.269 110.208 170.269C109.753 170.269 109.39 170.411 109.12 170.696C108.857 170.973 108.725 171.375 108.725 171.901V175.187H107.509V169.309H108.725V169.981C108.924 169.739 109.177 169.551 109.483 169.415C109.788 169.28 110.116 169.213 110.464 169.213C110.933 169.213 111.353 169.312 111.723 169.511C112.093 169.711 112.377 169.999 112.576 170.376C112.754 170.02 113.032 169.739 113.409 169.533C113.786 169.319 114.191 169.213 114.625 169.213ZM123.982 172.104C123.982 172.324 123.967 172.524 123.939 172.701H119.448C119.483 173.171 119.657 173.548 119.97 173.832C120.283 174.117 120.667 174.259 121.123 174.259C121.777 174.259 122.239 173.985 122.509 173.437H123.822C123.644 173.978 123.32 174.422 122.851 174.771C122.389 175.112 121.812 175.283 121.123 175.283C120.561 175.283 120.056 175.159 119.608 174.91C119.167 174.654 118.818 174.298 118.562 173.843C118.313 173.381 118.189 172.847 118.189 172.243C118.189 171.638 118.31 171.108 118.551 170.653C118.8 170.191 119.145 169.835 119.586 169.586C120.034 169.337 120.546 169.213 121.123 169.213C121.677 169.213 122.172 169.334 122.605 169.575C123.039 169.817 123.377 170.159 123.619 170.6C123.861 171.033 123.982 171.535 123.982 172.104ZM122.712 171.72C122.705 171.272 122.545 170.913 122.232 170.642C121.919 170.372 121.532 170.237 121.069 170.237C120.65 170.237 120.29 170.372 119.992 170.642C119.693 170.905 119.515 171.265 119.458 171.72H122.712ZM128.144 169.213C128.607 169.213 129.019 169.309 129.382 169.501C129.752 169.693 130.04 169.977 130.246 170.354C130.452 170.731 130.556 171.186 130.556 171.72V175.187H129.35V171.901C129.35 171.375 129.218 170.973 128.955 170.696C128.692 170.411 128.333 170.269 127.878 170.269C127.423 170.269 127.06 170.411 126.79 170.696C126.526 170.973 126.395 171.375 126.395 171.901V175.187H125.179V169.309H126.395V169.981C126.594 169.739 126.846 169.551 127.152 169.415C127.465 169.28 127.796 169.213 128.144 169.213ZM133.526 170.301V173.555C133.526 173.775 133.576 173.935 133.675 174.035C133.782 174.127 133.96 174.174 134.209 174.174H134.955V175.187H133.995C133.448 175.187 133.028 175.059 132.736 174.803C132.445 174.547 132.299 174.131 132.299 173.555V170.301H131.605V169.309H132.299V167.847H133.526V169.309H134.955V170.301H133.526ZM146.657 167.772V175.187H145.441V170.109L143.179 175.187H142.336L140.064 170.109V175.187H138.848V167.772H140.16L142.763 173.587L145.355 167.772H146.657ZM147.85 172.221C147.85 171.631 147.971 171.108 148.213 170.653C148.462 170.198 148.796 169.846 149.216 169.597C149.642 169.341 150.112 169.213 150.624 169.213C151.086 169.213 151.488 169.305 151.829 169.49C152.178 169.668 152.455 169.892 152.662 170.162V169.309H153.888V175.187H152.662V174.312C152.455 174.59 152.174 174.821 151.819 175.006C151.463 175.191 151.058 175.283 150.603 175.283C150.098 175.283 149.635 175.155 149.216 174.899C148.796 174.636 148.462 174.273 148.213 173.811C147.971 173.341 147.85 172.812 147.85 172.221ZM152.662 172.243C152.662 171.837 152.576 171.485 152.406 171.186C152.242 170.888 152.025 170.66 151.755 170.504C151.484 170.347 151.193 170.269 150.88 170.269C150.567 170.269 150.275 170.347 150.005 170.504C149.735 170.653 149.514 170.877 149.344 171.176C149.18 171.467 149.098 171.816 149.098 172.221C149.098 172.627 149.18 172.982 149.344 173.288C149.514 173.594 149.735 173.829 150.005 173.992C150.282 174.149 150.574 174.227 150.88 174.227C151.193 174.227 151.484 174.149 151.755 173.992C152.025 173.836 152.242 173.608 152.406 173.309C152.576 173.004 152.662 172.648 152.662 172.243ZM155.08 172.221C155.08 171.631 155.201 171.108 155.443 170.653C155.692 170.198 156.026 169.846 156.446 169.597C156.873 169.341 157.346 169.213 157.865 169.213C158.249 169.213 158.626 169.298 158.996 169.469C159.373 169.632 159.671 169.853 159.892 170.13V167.292H161.119V175.187H159.892V174.302C159.693 174.586 159.415 174.821 159.06 175.006C158.711 175.191 158.309 175.283 157.854 175.283C157.342 175.283 156.873 175.155 156.446 174.899C156.026 174.636 155.692 174.273 155.443 173.811C155.201 173.341 155.08 172.812 155.08 172.221ZM159.892 172.243C159.892 171.837 159.807 171.485 159.636 171.186C159.472 170.888 159.255 170.66 158.985 170.504C158.715 170.347 158.423 170.269 158.11 170.269C157.797 170.269 157.506 170.347 157.236 170.504C156.965 170.653 156.745 170.877 156.574 171.176C156.41 171.467 156.329 171.816 156.329 172.221C156.329 172.627 156.41 172.982 156.574 173.288C156.745 173.594 156.965 173.829 157.236 173.992C157.513 174.149 157.805 174.227 158.11 174.227C158.423 174.227 158.715 174.149 158.985 173.992C159.255 173.836 159.472 173.608 159.636 173.309C159.807 173.004 159.892 172.648 159.892 172.243ZM168.104 172.104C168.104 172.324 168.09 172.524 168.061 172.701H163.57C163.605 173.171 163.78 173.548 164.093 173.832C164.405 174.117 164.79 174.259 165.245 174.259C165.899 174.259 166.361 173.985 166.632 173.437H167.944C167.766 173.978 167.442 174.422 166.973 174.771C166.511 175.112 165.935 175.283 165.245 175.283C164.683 175.283 164.178 175.159 163.73 174.91C163.289 174.654 162.94 174.298 162.684 173.843C162.435 173.381 162.311 172.847 162.311 172.243C162.311 171.638 162.432 171.108 162.674 170.653C162.923 170.191 163.267 169.835 163.708 169.586C164.157 169.337 164.669 169.213 165.245 169.213C165.799 169.213 166.294 169.334 166.728 169.575C167.161 169.817 167.499 170.159 167.741 170.6C167.983 171.033 168.104 171.535 168.104 172.104ZM166.834 171.72C166.827 171.272 166.667 170.913 166.354 170.642C166.041 170.372 165.654 170.237 165.191 170.237C164.772 170.237 164.413 170.372 164.114 170.642C163.815 170.905 163.637 171.265 163.58 171.72H166.834ZM173.288 168.754V170.93H175.849V171.923H173.288V174.195H176.169V175.187H172.072V167.762H176.169V168.754H173.288ZM177.261 172.221C177.261 171.631 177.382 171.108 177.624 170.653C177.873 170.198 178.207 169.846 178.627 169.597C179.054 169.341 179.523 169.213 180.035 169.213C180.497 169.213 180.899 169.305 181.241 169.49C181.589 169.668 181.867 169.892 182.073 170.162V169.309H183.3V175.187H182.073V174.312C181.867 174.59 181.586 174.821 181.23 175.006C180.874 175.191 180.469 175.283 180.014 175.283C179.509 175.283 179.047 175.155 178.627 174.899C178.207 174.636 177.873 174.273 177.624 173.811C177.382 173.341 177.261 172.812 177.261 172.221ZM182.073 172.243C182.073 171.837 181.988 171.485 181.817 171.186C181.653 170.888 181.436 170.66 181.166 170.504C180.896 170.347 180.604 170.269 180.291 170.269C179.978 170.269 179.687 170.347 179.416 170.504C179.146 170.653 178.926 170.877 178.755 171.176C178.591 171.467 178.51 171.816 178.51 172.221C178.51 172.627 178.591 172.982 178.755 173.288C178.926 173.594 179.146 173.829 179.416 173.992C179.694 174.149 179.985 174.227 180.291 174.227C180.604 174.227 180.896 174.149 181.166 173.992C181.436 173.836 181.653 173.608 181.817 173.309C181.988 173.004 182.073 172.648 182.073 172.243ZM187.031 175.283C186.569 175.283 186.153 175.201 185.783 175.038C185.42 174.867 185.132 174.639 184.919 174.355C184.705 174.063 184.591 173.74 184.577 173.384H185.836C185.857 173.633 185.975 173.843 186.188 174.014C186.409 174.177 186.682 174.259 187.01 174.259C187.351 174.259 187.614 174.195 187.799 174.067C187.991 173.932 188.087 173.761 188.087 173.555C188.087 173.334 187.98 173.171 187.767 173.064C187.561 172.957 187.23 172.84 186.775 172.712C186.334 172.591 185.975 172.474 185.697 172.36C185.42 172.246 185.178 172.072 184.972 171.837C184.773 171.602 184.673 171.293 184.673 170.909C184.673 170.596 184.766 170.312 184.951 170.056C185.135 169.792 185.399 169.586 185.74 169.437C186.088 169.287 186.487 169.213 186.935 169.213C187.603 169.213 188.14 169.383 188.546 169.725C188.958 170.059 189.179 170.518 189.207 171.101H187.991C187.97 170.838 187.863 170.628 187.671 170.472C187.479 170.315 187.219 170.237 186.892 170.237C186.572 170.237 186.327 170.297 186.156 170.418C185.985 170.539 185.9 170.699 185.9 170.898C185.9 171.055 185.957 171.186 186.071 171.293C186.185 171.4 186.323 171.485 186.487 171.549C186.65 171.606 186.892 171.681 187.212 171.773C187.639 171.887 187.987 172.004 188.258 172.125C188.535 172.239 188.773 172.41 188.973 172.637C189.172 172.865 189.275 173.167 189.282 173.544C189.282 173.878 189.189 174.177 189.005 174.44C188.82 174.703 188.556 174.91 188.215 175.059C187.881 175.208 187.486 175.283 187.031 175.283ZM195.888 169.309L192.282 177.95H191.023L192.218 175.091L189.903 169.309H191.258L192.911 173.789L194.629 169.309H195.888Z" fill="#07254B"/>
<path d="M24 90.9145C49.5694 80.6654 118.1 66.3166 185.744 90.9145C159.907 76.2881 91.0036 55.8113 24 90.9145Z" fill="#07254B"/>
<path d="M95.2632 24.4555V33.1032L111.918 51.6797V67.694L125.37 68.6548L125.69 14.3665L140.424 25.2562V46.5552L133.537 49.5979V69.9359L148.431 72.8185V48.9573L155.157 53.4413V73.9395L158.36 75.3808V51.1993L147.63 43.9929L144.267 45.4342V23.0142L124.089 7L95.2632 24.4555Z" fill="#07254B"/>
<path d="M96.5444 52.1602V67.5342C88.644 67.9612 68.7117 70.0321 52.1851 74.9004V52.1602L74.1245 29.2598L96.5444 52.1602ZM68.6802 56.667V62H73.7085V56.667H68.6802ZM74.6509 56.667V62H79.6802V56.667H74.6509ZM68.6802 50V55.333H73.7085V50H68.6802ZM74.6509 50V55.333H79.6802V50H74.6509Z" fill="#07254B"/>
<defs>
<linearGradient id="paint0_linear_1965_25744" x1="23.9678" y1="155.143" x2="186.032" y2="155.143" gradientUnits="userSpaceOnUse">
<stop stop-color="#CE3128" stop-opacity="0.03"/>
<stop offset="0.216346" stop-color="#CE3128"/>
<stop offset="0.538462" stop-color="#CE3128"/>
<stop offset="0.846154" stop-color="#CE3128"/>
<stop offset="1" stop-color="#CE3128" stop-opacity="0.03"/>
</linearGradient>
</defs>
</svg>
